# xmcd
#
# Track frame offsets:
#	182
#	11687
#	25607
#	39332
#	51852
#	66200
#	80162
#	93235
#	107202
#	120440
#	135255
#	145937
#	158172
#	171362
#	183697
#	197040
#	209862
#	222662
#	234092
#	245980
#	255255
#	267247
#	278207
#	289832
#	302580
#
# Disc length: 4188 seconds
#
# Revision: 2
# Processed by: cddbd v1.5.2PL0 Copyright (c) Steve Scherf et al.
# Submitted via: audiograbber 1.83.01
#
DISCID=73105a19
DTITLE=Various Artist - All Night Boogie - The Great Atlantic Vocal Groups - V
DTITLE=olume 2  [CD1)
DYEAR=1996
DGENRE=Oldies
TTITLE0=Clovers - All Night Boogie
TTITLE1=Cardinals - I'll Always Love You
TTITLE2=Cardinals - For Awhile
TTITLE3=Clovers - Yes It's You
TTITLE4=Cardinals - You Are My Only Love
TTITLE5=Clyde McPhatter and The Drifters - Gone
TTITLE6=Clovers - Here Goes A Fool
TTITLE7=Diamonds - Two Loves Have I
TTITLE8=Diamonds - I'll Live Again
TTITLE9=Clyde McPhatter and The Drifters - Let The Boogie Woogie Roll
TTITLE10=Diamonds - Cherry
TTITLE11=Chords - Cross Over The Bridge
TTITLE12=Playboys - Rock, Moan And Cry
TTITLE13=Playboys - Good Golly Miss Molly
TTITLE14=Chords - Bless You
TTITLE15=Carmen Taylor and The Boleros - Freddie
TTITLE16=Robins - If Teardrops Were Kisses
TTITLE17=Sheiks - Walk That Walk
TTITLE18=Chords - Pretty Wild
TTITLE19=Chords - Heartbeat
TTITLE20=Cardinals - Here Goes My Heart To You
TTITLE21=Royal Jokers - Don't Leave Me Fannie
TTITLE22=Pearls - Come On Home
TTITLE23=Sensations - Ain't She Sweet
TTITLE24=Drifters - Your Promise To Be Mine
EXTD=
EXTT0=
EXTT1=
EXTT2=
EXTT3=
EXTT4=
EXTT5=
EXTT6=
EXTT7=
EXTT8=
EXTT9=
EXTT10=
EXTT11=
EXTT12=
EXTT13=
EXTT14=
EXTT15=
EXTT16=
EXTT17=
EXTT18=
EXTT19=
EXTT20=
EXTT21=
EXTT22=
EXTT23=
EXTT24=
PLAYORDER=
